%TF.GenerationSoftware,KiCad,Pcbnew,10.0.6*%
%TF.CreationDate,2026-10-08T15:08:29+09:00*%
%TF.ProjectId,esp32c6_board,65737033-3263-4365-9f62-6f6172642e6b,rev?*%
%TF.SameCoordinates,Original*%
%TF.FileFunction,Copper,L1,Top*%
%TF.FilePolarity,Positive*%
%FSLAX46Y46*%
G04 Gerber Fmt 4.6, Leading zero omitted, Abs format (unit mm)*
G04 Created by KiCad (PCBNEW 10.0.6) date 2026-10-08 15:08:29*
%MOMM*%
%LPD*%
G01*
G04 APERTURE LIST*
%TA.AperFunction,ComponentPad*%
%ADD10R,1.700000X1.700000*%
%TD*%
%TA.AperFunction,ComponentPad*%
%ADD11C,1.700000*%
%TD*%
G04 APERTURE END LIST*
D10*
%TO.P,REF\u002A\u002A,1*%
%TO.N,N/C*%
X119900000Y-73000000D03*
D11*
%TO.P,REF\u002A\u002A,2*%
X122440000Y-73000000D03*
%TO.P,REF\u002A\u002A,3*%
X124980000Y-73000000D03*
%TO.P,REF\u002A\u002A,4*%
X127520000Y-73000000D03*
%TO.P,REF\u002A\u002A,5*%
X130060000Y-73000000D03*
%TO.P,REF\u002A\u002A,6*%
X132600000Y-73000000D03*
%TO.P,REF\u002A\u002A,7*%
X135140000Y-73000000D03*
%TO.P,REF\u002A\u002A,8*%
X137680000Y-73000000D03*
%TO.P,REF\u002A\u002A,9*%
X140220000Y-73000000D03*
%TO.P,REF\u002A\u002A,10*%
X142760000Y-73000000D03*
%TO.P,REF\u002A\u002A,11*%
X145300000Y-73000000D03*
%TD*%
D10*
%TO.P,REF\u002A\u002A,1*%
%TO.N,N/C*%
X119900000Y-65500000D03*
D11*
%TO.P,REF\u002A\u002A,2*%
X122440000Y-65500000D03*
%TO.P,REF\u002A\u002A,3*%
X124980000Y-65500000D03*
%TO.P,REF\u002A\u002A,4*%
X127520000Y-65500000D03*
%TO.P,REF\u002A\u002A,5*%
X130060000Y-65500000D03*
%TO.P,REF\u002A\u002A,6*%
X132600000Y-65500000D03*
%TO.P,REF\u002A\u002A,7*%
X135140000Y-65500000D03*
%TO.P,REF\u002A\u002A,8*%
X137680000Y-65500000D03*
%TO.P,REF\u002A\u002A,9*%
X140220000Y-65500000D03*
%TO.P,REF\u002A\u002A,10*%
X142760000Y-65500000D03*
%TO.P,REF\u002A\u002A,11*%
X145300000Y-65500000D03*
%TD*%
%TO.P,REF\u002A\u002A,7*%
%TO.N,N/C*%
X145300000Y-58240000D03*
%TO.P,REF\u002A\u002A,6*%
X145300000Y-55700000D03*
%TO.P,REF\u002A\u002A,5*%
X145300000Y-53160000D03*
%TO.P,REF\u002A\u002A,4*%
X145300000Y-50620000D03*
%TO.P,REF\u002A\u002A,3*%
X145300000Y-48080000D03*
%TO.P,REF\u002A\u002A,2*%
X145300000Y-45540000D03*
D10*
%TO.P,REF\u002A\u002A,1*%
X145300000Y-43000000D03*
%TD*%
%TO.P,REF\u002A\u002A,1*%
%TO.N,N/C*%
X140200000Y-43000000D03*
D11*
%TO.P,REF\u002A\u002A,2*%
X140200000Y-45540000D03*
%TO.P,REF\u002A\u002A,3*%
X140200000Y-48080000D03*
%TO.P,REF\u002A\u002A,4*%
X140200000Y-50620000D03*
%TO.P,REF\u002A\u002A,5*%
X140200000Y-53160000D03*
%TO.P,REF\u002A\u002A,6*%
X140200000Y-55700000D03*
%TO.P,REF\u002A\u002A,7*%
X140200000Y-58240000D03*
%TD*%
D10*
%TO.P,REF\u002A\u002A,1*%
%TO.N,N/C*%
X125000000Y-43000000D03*
D11*
%TO.P,REF\u002A\u002A,2*%
X125000000Y-45540000D03*
%TO.P,REF\u002A\u002A,3*%
X125000000Y-48080000D03*
%TO.P,REF\u002A\u002A,4*%
X125000000Y-50620000D03*
%TO.P,REF\u002A\u002A,5*%
X125000000Y-53160000D03*
%TO.P,REF\u002A\u002A,6*%
X125000000Y-55700000D03*
%TO.P,REF\u002A\u002A,7*%
X125000000Y-58240000D03*
%TD*%
D10*
%TO.P,REF\u002A\u002A,1*%
%TO.N,N/C*%
X119900000Y-43000000D03*
D11*
%TO.P,REF\u002A\u002A,2*%
X119900000Y-45540000D03*
%TO.P,REF\u002A\u002A,3*%
X119900000Y-48080000D03*
%TO.P,REF\u002A\u002A,4*%
X119900000Y-50620000D03*
%TO.P,REF\u002A\u002A,5*%
X119900000Y-53160000D03*
%TO.P,REF\u002A\u002A,6*%
X119900000Y-55700000D03*
%TO.P,REF\u002A\u002A,7*%
X119900000Y-58240000D03*
%TD*%
M02*
