%TF.GenerationSoftware,KiCad,Pcbnew,10.0.6*%
%TF.CreationDate,2026-10-08T15:08:29+09:00*%
%TF.ProjectId,esp32c6_board,65737033-3263-4365-9f62-6f6172642e6b,rev?*%
%TF.SameCoordinates,Original*%
%TF.FileFunction,Soldermask,Top*%
%TF.FilePolarity,Negative*%
%FSLAX46Y46*%
G04 Gerber Fmt 4.6, Leading zero omitted, Abs format (unit mm)*
G04 Created by KiCad (PCBNEW 10.0.6) date 2026-10-08 15:08:29*
%MOMM*%
%LPD*%
G01*
G04 APERTURE LIST*
%ADD10R,1.700000X1.700000*%
%ADD11C,1.700000*%
G04 APERTURE END LIST*
D10*
%TO.C,REF\u002A\u002A*%
X119900000Y-73000000D03*
D11*
X122440000Y-73000000D03*
X124980000Y-73000000D03*
X127520000Y-73000000D03*
X130060000Y-73000000D03*
X132600000Y-73000000D03*
X135140000Y-73000000D03*
X137680000Y-73000000D03*
X140220000Y-73000000D03*
X142760000Y-73000000D03*
X145300000Y-73000000D03*
%TD*%
D10*
%TO.C,REF\u002A\u002A*%
X119900000Y-65500000D03*
D11*
X122440000Y-65500000D03*
X124980000Y-65500000D03*
X127520000Y-65500000D03*
X130060000Y-65500000D03*
X132600000Y-65500000D03*
X135140000Y-65500000D03*
X137680000Y-65500000D03*
X140220000Y-65500000D03*
X142760000Y-65500000D03*
X145300000Y-65500000D03*
%TD*%
%TO.C,REF\u002A\u002A*%
X145300000Y-58240000D03*
X145300000Y-55700000D03*
X145300000Y-53160000D03*
X145300000Y-50620000D03*
X145300000Y-48080000D03*
X145300000Y-45540000D03*
D10*
X145300000Y-43000000D03*
%TD*%
%TO.C,REF\u002A\u002A*%
X140200000Y-43000000D03*
D11*
X140200000Y-45540000D03*
X140200000Y-48080000D03*
X140200000Y-50620000D03*
X140200000Y-53160000D03*
X140200000Y-55700000D03*
X140200000Y-58240000D03*
%TD*%
D10*
%TO.C,REF\u002A\u002A*%
X125000000Y-43000000D03*
D11*
X125000000Y-45540000D03*
X125000000Y-48080000D03*
X125000000Y-50620000D03*
X125000000Y-53160000D03*
X125000000Y-55700000D03*
X125000000Y-58240000D03*
%TD*%
D10*
%TO.C,REF\u002A\u002A*%
X119900000Y-43000000D03*
D11*
X119900000Y-45540000D03*
X119900000Y-48080000D03*
X119900000Y-50620000D03*
X119900000Y-53160000D03*
X119900000Y-55700000D03*
X119900000Y-58240000D03*
%TD*%
M02*
