M48
; DRILL file KiCad 10.0.6 date 2026-10-08T15:08:24
; FORMAT={-:-/ absolute / metric / decimal}
; #@! TF.CreationDate,2026-10-08T15:08:24+09:00
; #@! TF.GenerationSoftware,Kicad,Pcbnew,10.0.6
; #@! TF.FileFunction,MixedPlating,1,2
FMAT,2
METRIC
; #@! TA.AperFunction,Plated,PTH,ComponentDrill
T1C1.000
%
G90
G05
T1
X119.9Y-43.0
X119.9Y-45.54
X119.9Y-48.08
X119.9Y-50.62
X119.9Y-53.16
X119.9Y-55.7
X119.9Y-58.24
X119.9Y-65.5
X119.9Y-73.0
X122.44Y-65.5
X122.44Y-73.0
X124.98Y-65.5
X124.98Y-73.0
X125.0Y-43.0
X125.0Y-45.54
X125.0Y-48.08
X125.0Y-50.62
X125.0Y-53.16
X125.0Y-55.7
X125.0Y-58.24
X127.52Y-65.5
X127.52Y-73.0
X130.06Y-65.5
X130.06Y-73.0
X132.6Y-65.5
X132.6Y-73.0
X135.14Y-65.5
X135.14Y-73.0
X137.68Y-65.5
X137.68Y-73.0
X140.2Y-43.0
X140.2Y-45.54
X140.2Y-48.08
X140.2Y-50.62
X140.2Y-53.16
X140.2Y-55.7
X140.2Y-58.24
X140.22Y-65.5
X140.22Y-73.0
X142.76Y-65.5
X142.76Y-73.0
X145.3Y-43.0
X145.3Y-45.54
X145.3Y-48.08
X145.3Y-50.62
X145.3Y-53.16
X145.3Y-55.7
X145.3Y-58.24
X145.3Y-65.5
X145.3Y-73.0
M30
