%TF.GenerationSoftware,KiCad,Pcbnew,10.0.6*%
%TF.CreationDate,2026-10-08T15:08:29+09:00*%
%TF.ProjectId,esp32c6_board,65737033-3263-4365-9f62-6f6172642e6b,rev?*%
%TF.SameCoordinates,Original*%
%TF.FileFunction,Copper,L2,Bot*%
%TF.FilePolarity,Positive*%
%FSLAX46Y46*%
G04 Gerber Fmt 4.6, Leading zero omitted, Abs format (unit mm)*
G04 Created by KiCad (PCBNEW 10.0.6) date 2026-10-08 15:08:29*
%MOMM*%
%LPD*%
G01*
G04 APERTURE LIST*
%TA.AperFunction,NonConductor*%
%ADD10C,3.000000*%
%TD*%
%TA.AperFunction,NonConductor*%
%ADD11C,1.000000*%
%TD*%
%TA.AperFunction,ComponentPad*%
%ADD12R,1.700000X1.700000*%
%TD*%
%TA.AperFunction,ComponentPad*%
%ADD13C,1.700000*%
%TD*%
%TA.AperFunction,Conductor*%
%ADD14C,1.000000*%
%TD*%
G04 APERTURE END LIST*
D10*
X145000000Y-73000000D02*
X120000000Y-73000000D01*
X145500000Y-65500000D02*
X120000000Y-65500000D01*
D11*
X136000000Y-45500000D02*
X133500000Y-47500000D01*
X140000000Y-45500000D02*
X136000000Y-45500000D01*
X133500000Y-47500000D02*
X133500000Y-60500000D01*
X133500000Y-60500000D02*
X127500000Y-65500000D01*
X120500000Y-58000000D02*
X124500000Y-58000000D01*
X124500000Y-50500000D02*
X120500000Y-50500000D01*
X124500000Y-53000000D02*
X120500000Y-53000000D01*
X124500000Y-43000000D02*
X120500000Y-43000000D01*
X124500000Y-55500000D02*
X120500000Y-55500000D01*
X124500000Y-48000000D02*
X120500000Y-48000000D01*
X124500000Y-45500000D02*
X120500000Y-45500000D01*
D12*
%TO.P,REF\u002A\u002A,1*%
%TO.N,N/C*%
X119900000Y-73000000D03*
D13*
%TO.P,REF\u002A\u002A,2*%
X122440000Y-73000000D03*
%TO.P,REF\u002A\u002A,3*%
X124980000Y-73000000D03*
%TO.P,REF\u002A\u002A,4*%
X127520000Y-73000000D03*
%TO.P,REF\u002A\u002A,5*%
X130060000Y-73000000D03*
%TO.P,REF\u002A\u002A,6*%
X132600000Y-73000000D03*
%TO.P,REF\u002A\u002A,7*%
X135140000Y-73000000D03*
%TO.P,REF\u002A\u002A,8*%
X137680000Y-73000000D03*
%TO.P,REF\u002A\u002A,9*%
X140220000Y-73000000D03*
%TO.P,REF\u002A\u002A,10*%
X142760000Y-73000000D03*
%TO.P,REF\u002A\u002A,11*%
X145300000Y-73000000D03*
%TD*%
D12*
%TO.P,REF\u002A\u002A,1*%
%TO.N,N/C*%
X119900000Y-65500000D03*
D13*
%TO.P,REF\u002A\u002A,2*%
X122440000Y-65500000D03*
%TO.P,REF\u002A\u002A,3*%
X124980000Y-65500000D03*
%TO.P,REF\u002A\u002A,4*%
X127520000Y-65500000D03*
%TO.P,REF\u002A\u002A,5*%
X130060000Y-65500000D03*
%TO.P,REF\u002A\u002A,6*%
X132600000Y-65500000D03*
%TO.P,REF\u002A\u002A,7*%
X135140000Y-65500000D03*
%TO.P,REF\u002A\u002A,8*%
X137680000Y-65500000D03*
%TO.P,REF\u002A\u002A,9*%
X140220000Y-65500000D03*
%TO.P,REF\u002A\u002A,10*%
X142760000Y-65500000D03*
%TO.P,REF\u002A\u002A,11*%
X145300000Y-65500000D03*
%TD*%
%TO.P,REF\u002A\u002A,7*%
%TO.N,N/C*%
X145300000Y-58240000D03*
%TO.P,REF\u002A\u002A,6*%
X145300000Y-55700000D03*
%TO.P,REF\u002A\u002A,5*%
X145300000Y-53160000D03*
%TO.P,REF\u002A\u002A,4*%
X145300000Y-50620000D03*
%TO.P,REF\u002A\u002A,3*%
X145300000Y-48080000D03*
%TO.P,REF\u002A\u002A,2*%
X145300000Y-45540000D03*
D12*
%TO.P,REF\u002A\u002A,1*%
X145300000Y-43000000D03*
%TD*%
%TO.P,REF\u002A\u002A,1*%
%TO.N,N/C*%
X140200000Y-43000000D03*
D13*
%TO.P,REF\u002A\u002A,2*%
X140200000Y-45540000D03*
%TO.P,REF\u002A\u002A,3*%
X140200000Y-48080000D03*
%TO.P,REF\u002A\u002A,4*%
X140200000Y-50620000D03*
%TO.P,REF\u002A\u002A,5*%
X140200000Y-53160000D03*
%TO.P,REF\u002A\u002A,6*%
X140200000Y-55700000D03*
%TO.P,REF\u002A\u002A,7*%
X140200000Y-58240000D03*
%TD*%
D12*
%TO.P,REF\u002A\u002A,1*%
%TO.N,N/C*%
X125000000Y-43000000D03*
D13*
%TO.P,REF\u002A\u002A,2*%
X125000000Y-45540000D03*
%TO.P,REF\u002A\u002A,3*%
X125000000Y-48080000D03*
%TO.P,REF\u002A\u002A,4*%
X125000000Y-50620000D03*
%TO.P,REF\u002A\u002A,5*%
X125000000Y-53160000D03*
%TO.P,REF\u002A\u002A,6*%
X125000000Y-55700000D03*
%TO.P,REF\u002A\u002A,7*%
X125000000Y-58240000D03*
%TD*%
D12*
%TO.P,REF\u002A\u002A,1*%
%TO.N,N/C*%
X119900000Y-43000000D03*
D13*
%TO.P,REF\u002A\u002A,2*%
X119900000Y-45540000D03*
%TO.P,REF\u002A\u002A,3*%
X119900000Y-48080000D03*
%TO.P,REF\u002A\u002A,4*%
X119900000Y-50620000D03*
%TO.P,REF\u002A\u002A,5*%
X119900000Y-53160000D03*
%TO.P,REF\u002A\u002A,6*%
X119900000Y-55700000D03*
%TO.P,REF\u002A\u002A,7*%
X119900000Y-58240000D03*
%TD*%
%TO.N,*%
D14*
X145300000Y-48080000D02*
X148080000Y-48080000D01*
X148080000Y-48080000D02*
X149500000Y-49500000D01*
X149500000Y-49500000D02*
X149500000Y-68800000D01*
X149500000Y-68800000D02*
X145300000Y-73000000D01*
X145300000Y-55700000D02*
X140200000Y-55700000D01*
X140200000Y-53160000D02*
X145300000Y-53160000D01*
X140200000Y-50620000D02*
X145300000Y-50620000D01*
X140200000Y-48080000D02*
X145300000Y-48080000D01*
X140200000Y-45540000D02*
X145300000Y-45540000D01*
X140200000Y-43000000D02*
X145300000Y-43000000D01*
X140200000Y-58240000D02*
X145300000Y-58240000D01*
%TD*%
M02*
