M48
; DRILL file KiCad 10.0.6 date 2026-10-07T13:48:20
; FORMAT={-:-/ absolute / metric / decimal}
; #@! TF.CreationDate,2026-10-07T13:48:20+09:00
; #@! TF.GenerationSoftware,Kicad,Pcbnew,10.0.6
; #@! TF.FileFunction,MixedPlating,1,2
FMAT,2
METRIC
; #@! TA.AperFunction,Plated,PTH,ComponentDrill
T1C1.000
; #@! TA.AperFunction,Plated,PTH,ComponentDrill
T2C3.000
; #@! TA.AperFunction,NonPlated,NPTH,ComponentDrill
T3C1.000
%
G90
G05
T1
X69.0Y-73.96
X69.0Y-76.5
X69.0Y-79.04
X82.42Y-92.24
X82.5Y-107.24
X82.5Y-112.0
X84.96Y-92.24
X85.0Y-72.74
X85.0Y-80.24
X85.04Y-107.24
X85.04Y-112.0
X87.5Y-92.24
X87.58Y-107.24
X87.58Y-112.0
X103.92Y-92.24
X104.0Y-107.24
X104.0Y-112.0
X106.46Y-92.24
X106.5Y-72.74
X106.5Y-80.24
X106.54Y-107.24
X106.54Y-112.0
X109.0Y-92.24
X109.08Y-107.24
X109.08Y-112.0
X125.42Y-92.24
X125.5Y-107.24
X125.5Y-112.0
X127.96Y-92.24
X128.0Y-72.74
X128.0Y-80.24
X128.04Y-107.24
X128.04Y-112.0
X130.5Y-92.24
X130.58Y-107.24
X130.58Y-112.0
X145.92Y-92.24
X146.0Y-107.24
X146.0Y-112.0
X148.46Y-92.24
X148.5Y-72.74
X148.5Y-80.24
X148.54Y-107.24
X148.54Y-112.0
X151.0Y-92.24
X151.08Y-107.24
X151.08Y-112.0
X166.42Y-92.24
X166.5Y-107.24
X166.5Y-112.0
X168.96Y-92.24
X169.0Y-72.74
X169.0Y-80.24
X169.04Y-107.24
X169.04Y-112.0
X171.5Y-92.24
X171.58Y-107.24
X171.58Y-112.0
X187.42Y-92.0
X187.5Y-107.0
X187.5Y-111.76
X189.96Y-92.0
X190.0Y-72.5
X190.0Y-80.0
X190.04Y-107.0
X190.04Y-111.76
X192.5Y-92.0
X192.58Y-107.0
X192.58Y-111.76
X205.0Y-73.46
X205.0Y-76.0
X205.0Y-78.54
T2
X82.1Y-126.5
X82.75Y-119.0
X87.25Y-119.0
X87.9Y-126.5
X94.0Y-86.24
X94.5Y-68.74
X103.6Y-126.5
X104.25Y-119.0
X108.75Y-119.0
X109.4Y-126.5
X115.5Y-86.24
X116.0Y-68.74
X125.1Y-126.5
X125.75Y-119.0
X130.25Y-119.0
X130.9Y-126.5
X137.0Y-86.24
X137.5Y-68.74
X145.6Y-126.5
X146.25Y-119.0
X150.75Y-119.0
X151.4Y-126.5
X157.5Y-86.24
X158.0Y-68.74
X166.1Y-126.5
X166.75Y-119.0
X171.25Y-119.0
X171.9Y-126.5
X178.0Y-86.24
X178.5Y-68.74
X187.1Y-126.26
X187.75Y-118.76
X192.25Y-118.76
X192.9Y-126.26
X199.0Y-86.0
X199.5Y-68.5
T3
X82.5Y-123.0
X87.5Y-123.0
X104.0Y-123.0
X109.0Y-123.0
X125.5Y-123.0
X130.5Y-123.0
X146.0Y-123.0
X151.0Y-123.0
X166.5Y-123.0
X171.5Y-123.0
X187.5Y-122.76
X192.5Y-122.76
M30
