%TF.GenerationSoftware,KiCad,Pcbnew,10.0.6*%
%TF.CreationDate,2026-09-30T13:46:26+09:00*%
%TF.ProjectId,point_sw,706f696e-745f-4737-972e-6b696361645f,rev?*%
%TF.SameCoordinates,Original*%
%TF.FileFunction,Copper,L2,Bot*%
%TF.FilePolarity,Positive*%
%FSLAX46Y46*%
G04 Gerber Fmt 4.6, Leading zero omitted, Abs format (unit mm)*
G04 Created by KiCad (PCBNEW 10.0.6) date 2026-09-30 13:46:26*
%MOMM*%
%LPD*%
G01*
G04 APERTURE LIST*
%TA.AperFunction,NonConductor*%
%ADD10C,1.000000*%
%TD*%
%TA.AperFunction,NonConductor*%
%ADD11C,0.300000*%
%TD*%
%TA.AperFunction,NonConductor*%
%ADD12C,0.200000*%
%TD*%
%TA.AperFunction,ComponentPad*%
%ADD13C,1.700000*%
%TD*%
%TA.AperFunction,ComponentPad*%
%ADD14R,1.700000X1.700000*%
%TD*%
%TA.AperFunction,ComponentPad*%
%ADD15C,2.000000*%
%TD*%
%TA.AperFunction,ComponentPad*%
%ADD16O,2.000000X2.300000*%
%TD*%
%TA.AperFunction,ComponentPad*%
%ADD17O,1.800000X2.300000*%
%TD*%
%TA.AperFunction,ComponentPad*%
%ADD18R,1.900000X1.900000*%
%TD*%
%TA.AperFunction,ComponentPad*%
%ADD19C,1.900000*%
%TD*%
%TA.AperFunction,ComponentPad*%
%ADD20C,3.800000*%
%TD*%
G04 APERTURE END LIST*
D10*
X160500000Y-73000000D02*
X167500000Y-63000000D01*
X168500000Y-69000000D02*
X173500000Y-63500000D01*
X168500000Y-91500000D02*
X168500000Y-69000000D01*
X187500000Y-69000000D02*
X193500000Y-63000000D01*
X205000000Y-66000000D02*
X202000000Y-63000000D01*
X205000000Y-73000000D02*
X205000000Y-66000000D01*
X167500000Y-63000000D02*
X202000000Y-63000000D01*
X205000000Y-93000000D02*
X201500000Y-96500000D01*
X205000000Y-79500000D02*
X205000000Y-93000000D01*
X165500000Y-96500000D02*
X160500000Y-79500000D01*
X171000000Y-91500000D02*
X171000000Y-80500000D01*
X174000000Y-92500000D02*
X178000000Y-96500000D01*
X174500000Y-91500000D02*
X179000000Y-86000000D01*
X172500000Y-72000000D02*
X177500000Y-68500000D01*
X190500000Y-72000000D02*
X198000000Y-68500000D01*
X193000000Y-92500000D02*
X197500000Y-96500000D01*
X187500000Y-91500000D02*
X187500000Y-69000000D01*
X193000000Y-91500000D02*
X199000000Y-87000000D01*
X190000000Y-80500000D02*
X190000000Y-91500000D01*
X201500000Y-96500000D02*
X165500000Y-96500000D01*
D11*
X178460000Y-113760000D02*
X173460000Y-117260000D01*
X178460000Y-106760000D02*
X178460000Y-113760000D01*
X173500000Y-113760000D02*
X168960000Y-117760000D01*
X173500000Y-111760000D02*
X173500000Y-113760000D01*
X164460000Y-122760000D02*
X167460000Y-124760000D01*
X164460000Y-116760000D02*
X164460000Y-122760000D01*
X166460000Y-114760000D02*
X164460000Y-116760000D01*
X168460000Y-114760000D02*
X166460000Y-114760000D01*
X170960000Y-111760000D02*
X168460000Y-114760000D01*
D12*
X197000000Y-114760000D02*
X193000000Y-118260000D01*
X197000000Y-106260000D02*
X197000000Y-114760000D01*
X192580000Y-111760000D02*
X188000000Y-118260000D01*
X181500000Y-122760000D02*
X186500000Y-125760000D01*
X181500000Y-117760000D02*
X181500000Y-122760000D01*
X184500000Y-115260000D02*
X181500000Y-117760000D01*
X187500000Y-115260000D02*
X184500000Y-115260000D01*
X190040000Y-111760000D02*
X187500000Y-115260000D01*
X193500000Y-103260000D02*
X197000000Y-106260000D01*
X190000000Y-103260000D02*
X193500000Y-103260000D01*
X187500000Y-107000000D02*
X190000000Y-103260000D01*
D11*
X175460000Y-103260000D02*
X178460000Y-106760000D01*
X170460000Y-103260000D02*
X175460000Y-103260000D01*
X168460000Y-106260000D02*
X170460000Y-103260000D01*
X168460000Y-107760000D02*
X168460000Y-111260000D01*
X170960000Y-107000000D02*
X170960000Y-111760000D01*
X173500000Y-111760000D02*
X173500000Y-107000000D01*
D12*
X192580000Y-107000000D02*
X192580000Y-111760000D01*
X190040000Y-107000000D02*
X190040000Y-111760000D01*
X187500000Y-107000000D02*
X187500000Y-111260000D01*
D13*
%TO.P,REF\u002A\u002A,3*%
%TO.N,N/C*%
X192500000Y-92000000D03*
%TO.P,REF\u002A\u002A,2*%
X189960000Y-92000000D03*
D14*
%TO.P,REF\u002A\u002A,1*%
X187420000Y-92000000D03*
%TD*%
D15*
%TO.P,sw01,1*%
%TO.N,N/C*%
X171750000Y-80000000D03*
%TO.P,sw01,2*%
X171750000Y-72500000D03*
%TD*%
%TO.P,sw01,1*%
%TO.N,N/C*%
X190000000Y-80000000D03*
%TO.P,sw01,2*%
X190000000Y-72500000D03*
%TD*%
D14*
%TO.P,REF\u002A\u002A,1*%
%TO.N,N/C*%
X173500000Y-111760000D03*
D13*
%TO.P,REF\u002A\u002A,2*%
X170960000Y-111760000D03*
%TO.P,REF\u002A\u002A,3*%
X168420000Y-111760000D03*
%TD*%
D14*
%TO.P,REF\u002A\u002A,1*%
%TO.N,N/C*%
X192580000Y-111760000D03*
D13*
%TO.P,REF\u002A\u002A,2*%
X190040000Y-111760000D03*
%TO.P,REF\u002A\u002A,3*%
X187500000Y-111760000D03*
%TD*%
D16*
%TO.P,REF\u002A\u002A,T*%
%TO.N,N/C*%
X168110000Y-125585000D03*
X173810000Y-125585000D03*
D17*
%TO.P,REF\u002A\u002A,S*%
X173260000Y-118085000D03*
%TO.P,REF\u002A\u002A,R*%
X168660000Y-118085000D03*
%TD*%
D18*
%TO.P,REF\u002A\u002A,R*%
%TO.N,N/C*%
X187750000Y-118760000D03*
D19*
%TO.P,REF\u002A\u002A,S*%
X192250000Y-118760000D03*
%TO.P,REF\u002A\u002A,T*%
X187100000Y-126260000D03*
X192900000Y-126260000D03*
%TD*%
D14*
%TO.P,REF\u002A\u002A,1*%
%TO.N,N/C*%
X160500000Y-78540000D03*
D13*
%TO.P,REF\u002A\u002A,2*%
X160500000Y-76000000D03*
%TO.P,REF\u002A\u002A,3*%
X160500000Y-73460000D03*
%TD*%
D14*
%TO.P,REF\u002A\u002A,1*%
%TO.N,N/C*%
X173500000Y-107000000D03*
D13*
%TO.P,REF\u002A\u002A,2*%
X170960000Y-107000000D03*
%TO.P,REF\u002A\u002A,3*%
X168420000Y-107000000D03*
%TD*%
D14*
%TO.P,REF\u002A\u002A,1*%
%TO.N,N/C*%
X192580000Y-107000000D03*
D13*
%TO.P,REF\u002A\u002A,2*%
X190040000Y-107000000D03*
%TO.P,REF\u002A\u002A,3*%
X187500000Y-107000000D03*
%TD*%
D20*
%TO.P,REF\u002A\u002A,1*%
%TO.N,N/C*%
X180000000Y-86000000D03*
%TD*%
D14*
%TO.P,REF\u002A\u002A,1*%
%TO.N,N/C*%
X168670000Y-92000000D03*
D13*
%TO.P,REF\u002A\u002A,2*%
X171210000Y-92000000D03*
%TO.P,REF\u002A\u002A,3*%
X173750000Y-92000000D03*
%TD*%
D20*
%TO.P,REF\u002A\u002A,1*%
%TO.N,N/C*%
X199500000Y-68000000D03*
%TD*%
%TO.P,REF\u002A\u002A,1*%
%TO.N,N/C*%
X199500000Y-85500000D03*
%TD*%
D14*
%TO.P,REF\u002A\u002A,1*%
%TO.N,N/C*%
X205000000Y-78540000D03*
D13*
%TO.P,REF\u002A\u002A,2*%
X205000000Y-76000000D03*
%TO.P,REF\u002A\u002A,3*%
X205000000Y-73460000D03*
%TD*%
D20*
%TO.P,REF\u002A\u002A,1*%
%TO.N,N/C*%
X179000000Y-68000000D03*
%TD*%
M02*
