%TF.GenerationSoftware,KiCad,Pcbnew,10.0.6*%
%TF.CreationDate,2026-10-07T13:48:17+09:00*%
%TF.ProjectId,point_sw,706f696e-745f-4737-972e-6b696361645f,rev?*%
%TF.SameCoordinates,Original*%
%TF.FileFunction,Copper,L2,Bot*%
%TF.FilePolarity,Positive*%
%FSLAX46Y46*%
G04 Gerber Fmt 4.6, Leading zero omitted, Abs format (unit mm)*
G04 Created by KiCad (PCBNEW 10.0.6) date 2026-10-07 13:48:17*
%MOMM*%
%LPD*%
G01*
G04 APERTURE LIST*
%TA.AperFunction,NonConductor*%
%ADD10C,1.000000*%
%TD*%
%TA.AperFunction,NonConductor*%
%ADD11C,0.500000*%
%TD*%
%TA.AperFunction,ComponentPad*%
%ADD12C,6.000000*%
%TD*%
%TA.AperFunction,ComponentPad*%
%ADD13C,4.000000*%
%TD*%
%TA.AperFunction,ComponentPad*%
%ADD14C,3.000000*%
%TD*%
%TA.AperFunction,ComponentPad*%
%ADD15C,2.000000*%
%TD*%
G04 APERTURE END LIST*
D10*
X69500000Y-73500000D02*
X79500000Y-63000000D01*
X69500000Y-79500000D02*
X78000000Y-96500000D01*
D11*
X76500000Y-118000000D02*
X76500000Y-123000000D01*
X76500000Y-123000000D02*
X81500000Y-126000000D01*
D10*
X79500000Y-63000000D02*
X202000000Y-63000000D01*
D11*
X79500000Y-115500000D02*
X76500000Y-118000000D01*
D10*
X80500000Y-70740000D02*
X88500000Y-63240000D01*
X80500000Y-89240000D02*
X80500000Y-70740000D01*
X82000000Y-91740000D02*
X80500000Y-89240000D01*
D11*
X82500000Y-107240000D02*
X82500000Y-111500000D01*
X82500000Y-107240000D02*
X85000000Y-103500000D01*
X82500000Y-115500000D02*
X79500000Y-115500000D01*
D10*
X85000000Y-80740000D02*
X85000000Y-91740000D01*
D11*
X85000000Y-103500000D02*
X88500000Y-103500000D01*
X85040000Y-107240000D02*
X85040000Y-112000000D01*
X85040000Y-112000000D02*
X82500000Y-115500000D01*
D10*
X85500000Y-72240000D02*
X93000000Y-68740000D01*
D11*
X87580000Y-107240000D02*
X87580000Y-112000000D01*
X87580000Y-112000000D02*
X83000000Y-118500000D01*
D10*
X88000000Y-91740000D02*
X94000000Y-87240000D01*
X88000000Y-92740000D02*
X92230000Y-96500000D01*
D11*
X88500000Y-103500000D02*
X92000000Y-106500000D01*
X92000000Y-106500000D02*
X92000000Y-115000000D01*
X92000000Y-115000000D02*
X88000000Y-118500000D01*
X98000000Y-118000000D02*
X98000000Y-123000000D01*
X98000000Y-123000000D02*
X103000000Y-126000000D01*
X101000000Y-115500000D02*
X98000000Y-118000000D01*
D10*
X102000000Y-70740000D02*
X110000000Y-63240000D01*
X102000000Y-89240000D02*
X102000000Y-70740000D01*
X103500000Y-91740000D02*
X102000000Y-89240000D01*
D11*
X104000000Y-107240000D02*
X104000000Y-111500000D01*
X104000000Y-107240000D02*
X106500000Y-103500000D01*
X104000000Y-115500000D02*
X101000000Y-115500000D01*
D10*
X106500000Y-80740000D02*
X106500000Y-91740000D01*
D11*
X106500000Y-103500000D02*
X110000000Y-103500000D01*
X106540000Y-107240000D02*
X106540000Y-112000000D01*
X106540000Y-112000000D02*
X104000000Y-115500000D01*
D10*
X107000000Y-72240000D02*
X114500000Y-68740000D01*
D11*
X109080000Y-107240000D02*
X109080000Y-112000000D01*
X109080000Y-112000000D02*
X104500000Y-118500000D01*
D10*
X109500000Y-91740000D02*
X115500000Y-87240000D01*
X109500000Y-92740000D02*
X113730000Y-96500000D01*
D11*
X110000000Y-103500000D02*
X113500000Y-106500000D01*
X113500000Y-106500000D02*
X113500000Y-115000000D01*
X113500000Y-115000000D02*
X109500000Y-118500000D01*
X119500000Y-118000000D02*
X119500000Y-123000000D01*
X119500000Y-123000000D02*
X124500000Y-126000000D01*
X122500000Y-115500000D02*
X119500000Y-118000000D01*
D10*
X123500000Y-70740000D02*
X131500000Y-63240000D01*
X123500000Y-89240000D02*
X123500000Y-70740000D01*
X125000000Y-91740000D02*
X123500000Y-89240000D01*
D11*
X125500000Y-107240000D02*
X125500000Y-111500000D01*
X125500000Y-107240000D02*
X128000000Y-103500000D01*
X125500000Y-115500000D02*
X122500000Y-115500000D01*
D10*
X128000000Y-80740000D02*
X128000000Y-91740000D01*
D11*
X128000000Y-103500000D02*
X131500000Y-103500000D01*
X128040000Y-107240000D02*
X128040000Y-112000000D01*
X128040000Y-112000000D02*
X125500000Y-115500000D01*
D10*
X128500000Y-72240000D02*
X136000000Y-68740000D01*
D11*
X130580000Y-107240000D02*
X130580000Y-112000000D01*
X130580000Y-112000000D02*
X126000000Y-118500000D01*
D10*
X131000000Y-91740000D02*
X137000000Y-87240000D01*
X131000000Y-92740000D02*
X135230000Y-96500000D01*
D11*
X131500000Y-103500000D02*
X135000000Y-106500000D01*
X135000000Y-106500000D02*
X135000000Y-115000000D01*
X135000000Y-115000000D02*
X131000000Y-118500000D01*
X140000000Y-118000000D02*
X140000000Y-123000000D01*
X140000000Y-123000000D02*
X145000000Y-126000000D01*
X143000000Y-115500000D02*
X140000000Y-118000000D01*
D10*
X144000000Y-70740000D02*
X152000000Y-63240000D01*
X144000000Y-89240000D02*
X144000000Y-70740000D01*
X145500000Y-91740000D02*
X144000000Y-89240000D01*
D11*
X146000000Y-107240000D02*
X146000000Y-111500000D01*
X146000000Y-107240000D02*
X148500000Y-103500000D01*
X146000000Y-115500000D02*
X143000000Y-115500000D01*
D10*
X148500000Y-80740000D02*
X148500000Y-91740000D01*
D11*
X148500000Y-103500000D02*
X152000000Y-103500000D01*
X148540000Y-107240000D02*
X148540000Y-112000000D01*
X148540000Y-112000000D02*
X146000000Y-115500000D01*
D10*
X149000000Y-72240000D02*
X156500000Y-68740000D01*
D11*
X151080000Y-107240000D02*
X151080000Y-112000000D01*
X151080000Y-112000000D02*
X146500000Y-118500000D01*
D10*
X151500000Y-91740000D02*
X157500000Y-87240000D01*
X151500000Y-92740000D02*
X155730000Y-96500000D01*
D11*
X152000000Y-103500000D02*
X155500000Y-106500000D01*
X155500000Y-106500000D02*
X155500000Y-115000000D01*
X155500000Y-115000000D02*
X151500000Y-118500000D01*
X160500000Y-118000000D02*
X160500000Y-123000000D01*
X160500000Y-123000000D02*
X165500000Y-126000000D01*
X163500000Y-115500000D02*
X160500000Y-118000000D01*
D10*
X164500000Y-70740000D02*
X172500000Y-63240000D01*
X164500000Y-89240000D02*
X164500000Y-70740000D01*
X166000000Y-91740000D02*
X164500000Y-89240000D01*
D11*
X166500000Y-107240000D02*
X166500000Y-111500000D01*
X166500000Y-107240000D02*
X169000000Y-103500000D01*
X166500000Y-115500000D02*
X163500000Y-115500000D01*
D10*
X169000000Y-80740000D02*
X169000000Y-91740000D01*
D11*
X169000000Y-103500000D02*
X172500000Y-103500000D01*
X169040000Y-107240000D02*
X169040000Y-112000000D01*
X169040000Y-112000000D02*
X166500000Y-115500000D01*
D10*
X169500000Y-72240000D02*
X177000000Y-68740000D01*
D11*
X171580000Y-107240000D02*
X171580000Y-112000000D01*
X171580000Y-112000000D02*
X167000000Y-118500000D01*
D10*
X172000000Y-91740000D02*
X178000000Y-87240000D01*
X172000000Y-92740000D02*
X176230000Y-96500000D01*
D11*
X172500000Y-103500000D02*
X176000000Y-106500000D01*
X176000000Y-106500000D02*
X176000000Y-115000000D01*
X176000000Y-115000000D02*
X172000000Y-118500000D01*
X181500000Y-117760000D02*
X181500000Y-122760000D01*
X181500000Y-122760000D02*
X186500000Y-125760000D01*
X184500000Y-115260000D02*
X181500000Y-117760000D01*
D10*
X185500000Y-70500000D02*
X193500000Y-63000000D01*
X185500000Y-89000000D02*
X185500000Y-70500000D01*
X187000000Y-91500000D02*
X185500000Y-89000000D01*
D11*
X187500000Y-107000000D02*
X187500000Y-111260000D01*
X187500000Y-107000000D02*
X190000000Y-103260000D01*
X187500000Y-115260000D02*
X184500000Y-115260000D01*
D10*
X190000000Y-80500000D02*
X190000000Y-91500000D01*
D11*
X190000000Y-103260000D02*
X193500000Y-103260000D01*
X190040000Y-107000000D02*
X190040000Y-111760000D01*
X190040000Y-111760000D02*
X187500000Y-115260000D01*
D10*
X190500000Y-72000000D02*
X198000000Y-68500000D01*
D11*
X192580000Y-107000000D02*
X192580000Y-111760000D01*
X192580000Y-111760000D02*
X188000000Y-118260000D01*
D10*
X193000000Y-91500000D02*
X199000000Y-87000000D01*
X193000000Y-92500000D02*
X197500000Y-96500000D01*
D11*
X193500000Y-103260000D02*
X197000000Y-106260000D01*
X197000000Y-106260000D02*
X197000000Y-114760000D01*
X197000000Y-114760000D02*
X193000000Y-118260000D01*
D10*
X201500000Y-96500000D02*
X78000000Y-96500000D01*
X205000000Y-66000000D02*
X202000000Y-63000000D01*
X205000000Y-73000000D02*
X205000000Y-66000000D01*
X205000000Y-79500000D02*
X205000000Y-93000000D01*
X205000000Y-93000000D02*
X201500000Y-96500000D01*
D12*
%TO.P,REF\u002A\u002A,1*%
%TO.N,N/C*%
X178500000Y-68740000D03*
%TD*%
D13*
%TO.P,REF\u002A\u002A,R*%
%TO.N,N/C*%
X82750000Y-119000000D03*
%TO.P,REF\u002A\u002A,S*%
X87250000Y-119000000D03*
%TO.P,REF\u002A\u002A,T*%
X82100000Y-126500000D03*
X87900000Y-126500000D03*
%TD*%
D14*
%TO.P,sw01,1*%
%TO.N,N/C*%
X148500000Y-80240000D03*
%TO.P,sw01,2*%
X148500000Y-72740000D03*
%TD*%
D15*
%TO.P,REF\u002A\u002A,1*%
%TO.N,N/C*%
X171580000Y-112000000D03*
%TO.P,REF\u002A\u002A,2*%
X169040000Y-112000000D03*
%TO.P,REF\u002A\u002A,3*%
X166500000Y-112000000D03*
%TD*%
%TO.P,REF\u002A\u002A,1*%
%TO.N,N/C*%
X192580000Y-107000000D03*
%TO.P,REF\u002A\u002A,2*%
X190040000Y-107000000D03*
%TO.P,REF\u002A\u002A,3*%
X187500000Y-107000000D03*
%TD*%
%TO.P,REF\u002A\u002A,1*%
%TO.N,N/C*%
X192580000Y-111760000D03*
%TO.P,REF\u002A\u002A,2*%
X190040000Y-111760000D03*
%TO.P,REF\u002A\u002A,3*%
X187500000Y-111760000D03*
%TD*%
D14*
%TO.P,sw01,1*%
%TO.N,N/C*%
X128000000Y-80240000D03*
%TO.P,sw01,2*%
X128000000Y-72740000D03*
%TD*%
D15*
%TO.P,REF\u002A\u002A,1*%
%TO.N,N/C*%
X69000000Y-79040000D03*
%TO.P,REF\u002A\u002A,2*%
X69000000Y-76500000D03*
%TO.P,REF\u002A\u002A,3*%
X69000000Y-73960000D03*
%TD*%
%TO.P,REF\u002A\u002A,1*%
%TO.N,N/C*%
X166420000Y-92240000D03*
%TO.P,REF\u002A\u002A,2*%
X168960000Y-92240000D03*
%TO.P,REF\u002A\u002A,3*%
X171500000Y-92240000D03*
%TD*%
D12*
%TO.P,REF\u002A\u002A,1*%
%TO.N,N/C*%
X116000000Y-68740000D03*
%TD*%
D13*
%TO.P,REF\u002A\u002A,R*%
%TO.N,N/C*%
X104250000Y-119000000D03*
%TO.P,REF\u002A\u002A,S*%
X108750000Y-119000000D03*
%TO.P,REF\u002A\u002A,T*%
X103600000Y-126500000D03*
X109400000Y-126500000D03*
%TD*%
D15*
%TO.P,REF\u002A\u002A,1*%
%TO.N,N/C*%
X103920000Y-92240000D03*
%TO.P,REF\u002A\u002A,2*%
X106460000Y-92240000D03*
%TO.P,REF\u002A\u002A,3*%
X109000000Y-92240000D03*
%TD*%
D12*
%TO.P,REF\u002A\u002A,1*%
%TO.N,N/C*%
X178000000Y-86240000D03*
%TD*%
D14*
%TO.P,sw01,1*%
%TO.N,N/C*%
X169000000Y-80240000D03*
%TO.P,sw01,2*%
X169000000Y-72740000D03*
%TD*%
D15*
%TO.P,REF\u002A\u002A,1*%
%TO.N,N/C*%
X125420000Y-92240000D03*
%TO.P,REF\u002A\u002A,2*%
X127960000Y-92240000D03*
%TO.P,REF\u002A\u002A,3*%
X130500000Y-92240000D03*
%TD*%
%TO.P,REF\u002A\u002A,1*%
%TO.N,N/C*%
X205000000Y-78540000D03*
%TO.P,REF\u002A\u002A,2*%
X205000000Y-76000000D03*
%TO.P,REF\u002A\u002A,3*%
X205000000Y-73460000D03*
%TD*%
%TO.P,REF\u002A\u002A,1*%
%TO.N,N/C*%
X87580000Y-112000000D03*
%TO.P,REF\u002A\u002A,2*%
X85040000Y-112000000D03*
%TO.P,REF\u002A\u002A,3*%
X82500000Y-112000000D03*
%TD*%
%TO.P,REF\u002A\u002A,1*%
%TO.N,N/C*%
X130580000Y-107240000D03*
%TO.P,REF\u002A\u002A,2*%
X128040000Y-107240000D03*
%TO.P,REF\u002A\u002A,3*%
X125500000Y-107240000D03*
%TD*%
%TO.P,REF\u002A\u002A,1*%
%TO.N,N/C*%
X82420000Y-92240000D03*
%TO.P,REF\u002A\u002A,2*%
X84960000Y-92240000D03*
%TO.P,REF\u002A\u002A,3*%
X87500000Y-92240000D03*
%TD*%
D12*
%TO.P,REF\u002A\u002A,1*%
%TO.N,N/C*%
X157500000Y-86240000D03*
%TD*%
D13*
%TO.P,REF\u002A\u002A,R*%
%TO.N,N/C*%
X125750000Y-119000000D03*
%TO.P,REF\u002A\u002A,S*%
X130250000Y-119000000D03*
%TO.P,REF\u002A\u002A,T*%
X125100000Y-126500000D03*
X130900000Y-126500000D03*
%TD*%
D15*
%TO.P,REF\u002A\u002A,1*%
%TO.N,N/C*%
X151080000Y-107240000D03*
%TO.P,REF\u002A\u002A,2*%
X148540000Y-107240000D03*
%TO.P,REF\u002A\u002A,3*%
X146000000Y-107240000D03*
%TD*%
%TO.P,REF\u002A\u002A,1*%
%TO.N,N/C*%
X145920000Y-92240000D03*
%TO.P,REF\u002A\u002A,2*%
X148460000Y-92240000D03*
%TO.P,REF\u002A\u002A,3*%
X151000000Y-92240000D03*
%TD*%
D13*
%TO.P,REF\u002A\u002A,R*%
%TO.N,N/C*%
X146250000Y-119000000D03*
%TO.P,REF\u002A\u002A,S*%
X150750000Y-119000000D03*
%TO.P,REF\u002A\u002A,T*%
X145600000Y-126500000D03*
X151400000Y-126500000D03*
%TD*%
D12*
%TO.P,REF\u002A\u002A,1*%
%TO.N,N/C*%
X115500000Y-86240000D03*
%TD*%
%TO.P,REF\u002A\u002A,1*%
%TO.N,N/C*%
X158000000Y-68740000D03*
%TD*%
D15*
%TO.P,REF\u002A\u002A,1*%
%TO.N,N/C*%
X187420000Y-92000000D03*
%TO.P,REF\u002A\u002A,2*%
X189960000Y-92000000D03*
%TO.P,REF\u002A\u002A,3*%
X192500000Y-92000000D03*
%TD*%
D12*
%TO.P,REF\u002A\u002A,1*%
%TO.N,N/C*%
X137500000Y-68740000D03*
%TD*%
D14*
%TO.P,sw01,1*%
%TO.N,N/C*%
X85000000Y-80240000D03*
%TO.P,sw01,2*%
X85000000Y-72740000D03*
%TD*%
D12*
%TO.P,REF\u002A\u002A,1*%
%TO.N,N/C*%
X94000000Y-86240000D03*
%TD*%
D15*
%TO.P,REF\u002A\u002A,1*%
%TO.N,N/C*%
X130580000Y-112000000D03*
%TO.P,REF\u002A\u002A,2*%
X128040000Y-112000000D03*
%TO.P,REF\u002A\u002A,3*%
X125500000Y-112000000D03*
%TD*%
D12*
%TO.P,REF\u002A\u002A,1*%
%TO.N,N/C*%
X199000000Y-86000000D03*
%TD*%
D13*
%TO.P,REF\u002A\u002A,R*%
%TO.N,N/C*%
X187750000Y-118760000D03*
%TO.P,REF\u002A\u002A,S*%
X192250000Y-118760000D03*
%TO.P,REF\u002A\u002A,T*%
X187100000Y-126260000D03*
X192900000Y-126260000D03*
%TD*%
D15*
%TO.P,REF\u002A\u002A,1*%
%TO.N,N/C*%
X151080000Y-112000000D03*
%TO.P,REF\u002A\u002A,2*%
X148540000Y-112000000D03*
%TO.P,REF\u002A\u002A,3*%
X146000000Y-112000000D03*
%TD*%
D12*
%TO.P,REF\u002A\u002A,1*%
%TO.N,N/C*%
X94500000Y-68740000D03*
%TD*%
%TO.P,REF\u002A\u002A,1*%
%TO.N,N/C*%
X199500000Y-68500000D03*
%TD*%
D15*
%TO.P,REF\u002A\u002A,1*%
%TO.N,N/C*%
X109080000Y-112000000D03*
%TO.P,REF\u002A\u002A,2*%
X106540000Y-112000000D03*
%TO.P,REF\u002A\u002A,3*%
X104000000Y-112000000D03*
%TD*%
D13*
%TO.P,REF\u002A\u002A,R*%
%TO.N,N/C*%
X166750000Y-119000000D03*
%TO.P,REF\u002A\u002A,S*%
X171250000Y-119000000D03*
%TO.P,REF\u002A\u002A,T*%
X166100000Y-126500000D03*
X171900000Y-126500000D03*
%TD*%
D15*
%TO.P,REF\u002A\u002A,1*%
%TO.N,N/C*%
X171580000Y-107240000D03*
%TO.P,REF\u002A\u002A,2*%
X169040000Y-107240000D03*
%TO.P,REF\u002A\u002A,3*%
X166500000Y-107240000D03*
%TD*%
D14*
%TO.P,sw01,1*%
%TO.N,N/C*%
X106500000Y-80240000D03*
%TO.P,sw01,2*%
X106500000Y-72740000D03*
%TD*%
%TO.P,sw01,1*%
%TO.N,N/C*%
X190000000Y-80000000D03*
%TO.P,sw01,2*%
X190000000Y-72500000D03*
%TD*%
D15*
%TO.P,REF\u002A\u002A,1*%
%TO.N,N/C*%
X109080000Y-107240000D03*
%TO.P,REF\u002A\u002A,2*%
X106540000Y-107240000D03*
%TO.P,REF\u002A\u002A,3*%
X104000000Y-107240000D03*
%TD*%
D12*
%TO.P,REF\u002A\u002A,1*%
%TO.N,N/C*%
X137000000Y-86240000D03*
%TD*%
D15*
%TO.P,REF\u002A\u002A,1*%
%TO.N,N/C*%
X87580000Y-107240000D03*
%TO.P,REF\u002A\u002A,2*%
X85040000Y-107240000D03*
%TO.P,REF\u002A\u002A,3*%
X82500000Y-107240000D03*
%TD*%
M02*
