M48
; DRILL file KiCad 10.0.6 date 2026-09-30T13:46:46
; FORMAT={-:-/ absolute / metric / decimal}
; #@! TF.CreationDate,2026-09-30T13:46:46+09:00
; #@! TF.GenerationSoftware,Kicad,Pcbnew,10.0.6
; #@! TF.FileFunction,MixedPlating,1,2
FMAT,2
METRIC
; #@! TA.AperFunction,Plated,PTH,ComponentDrill
T1C0.800
; #@! TA.AperFunction,Plated,PTH,ComponentDrill
T2C1.000
; #@! TA.AperFunction,Plated,PTH,ComponentDrill
T3C1.200
; #@! TA.AperFunction,Plated,PTH,ComponentDrill
T4C2.200
; #@! TA.AperFunction,NonPlated,NPTH,ComponentDrill
T5C1.000
; #@! TA.AperFunction,NonPlated,NPTH,ComponentDrill
T6C1.100
%
G90
G05
T2
X160.5Y-73.46
X160.5Y-76.0
X160.5Y-78.54
X168.42Y-107.0
X168.42Y-111.76
X168.67Y-92.0
X170.96Y-107.0
X170.96Y-111.76
X171.21Y-92.0
X171.75Y-72.5
X171.75Y-80.0
X173.5Y-107.0
X173.5Y-111.76
X173.75Y-92.0
X187.42Y-92.0
X187.5Y-107.0
X187.5Y-111.76
X189.96Y-92.0
X190.0Y-72.5
X190.0Y-80.0
X190.04Y-107.0
X190.04Y-111.76
X192.5Y-92.0
X192.58Y-107.0
X192.58Y-111.76
X205.0Y-73.46
X205.0Y-76.0
X205.0Y-78.54
T3
X187.1Y-126.26
X187.75Y-118.76
X192.25Y-118.76
X192.9Y-126.26
T4
X179.0Y-68.0
X180.0Y-86.0
X199.5Y-68.0
X199.5Y-85.5
T5
X187.5Y-122.76
X192.5Y-122.76
T6
X168.46Y-122.085
X173.46Y-122.085
T1
G00X168.66Y-118.335
M15
G01X168.66Y-117.835
M16
G05
G00X173.26Y-118.335
M15
G01X173.26Y-117.835
M16
G05
T2
G00X168.11Y-125.735
M15
G01X168.11Y-125.435
M16
G05
G00X173.81Y-125.735
M15
G01X173.81Y-125.435
M16
G05
M30
